<?xml version="1.0" standalone="no"?>
<!DOCTYPE svg PUBLIC "-//W3C//DTD SVG 20010904//EN"
 "http://www.w3.org/TR/2001/REC-SVG-20010904/DTD/svg10.dtd">
<svg version="1.0" xmlns="http://www.w3.org/2000/svg"
 width="407.000000pt" height="401.000000pt" viewBox="0 0 407.000000 401.000000"
 preserveAspectRatio="xMidYMid meet">

<g transform="translate(0.000000,401.000000) scale(0.100000,-0.100000)"
fill="#2c6763" stroke="none">
<path d="M2040 3929 c248 -9 441 -48 644 -129 80 -32 196 -87 196 -94 0 -3
-49 16 -110 40 -221 89 -415 130 -659 140 -328 14 -644 -45 -910 -172 -139
-65 -254 -135 -243 -146 6 -6 34 6 75 31 75 45 136 77 175 91 26 10 26 9 7 -6
-11 -8 -42 -27 -69 -41 -32 -16 -45 -28 -39 -34 7 -7 45 7 111 41 518 260
1064 268 1570 23 353 -172 637 -441 833 -791 27 -48 49 -83 49 -78 0 18 -95
184 -164 286 -46 68 -117 152 -201 238 -71 73 -127 131 -123 130 27 -11 157
-131 240 -222 256 -284 393 -579 443 -955 17 -125 19 -342 5 -461 -39 -318
-164 -646 -337 -882 -26 -35 -39 -57 -31 -50 23 19 108 145 161 238 133 235
234 578 238 810 1 33 5 73 10 89 15 54 1 -276 -16 -370 -8 -49 -27 -127 -41
-173 -14 -45 -22 -88 -18 -94 4 -6 3 -8 -3 -5 -6 4 -19 -14 -29 -41 -27 -67
-28 -72 -5 -32 27 48 26 35 -5 -40 -71 -175 -189 -374 -300 -506 -31 -38 -47
-60 -35 -49 13 11 52 56 86 100 438 559 523 1330 217 1977 -201 426 -477 726
-853 927 -279 149 -586 223 -907 219 l-147 -1 185 -8z"/>
<path d="M1778 3923 c7 -3 16 -2 19 1 4 3 -2 6 -13 5 -11 0 -14 -3 -6 -6z"/>
<path d="M1065 3597 c-12 -10 -14 -16 -7 -21 15 -9 54 12 47 25 -8 12 -18 11
-40 -4z"/>
<path d="M1025 3571 c-7 -12 12 -24 25 -16 11 7 4 25 -10 25 -5 0 -11 -4 -15
-9z"/>
<path d="M910 3548 c-14 -11 -24 -25 -22 -30 1 -5 -2 -7 -8 -3 -14 9 -138 -95
-241 -202 -128 -132 -235 -284 -309 -435 -39 -80 -18 -52 38 50 97 176 308
415 487 551 39 29 69 57 68 61 -1 4 3 7 10 6 7 0 13 3 15 9 6 18 -13 15 -38
-7z"/>
<path d="M995 3551 c-7 -12 12 -24 25 -16 11 7 4 25 -10 25 -5 0 -11 -4 -15
-9z"/>
<path d="M885 3468 c-101 -80 -284 -259 -334 -328 l-33 -45 41 45 c22 25 41
42 41 38 0 -4 -25 -41 -55 -84 -56 -78 -165 -263 -165 -280 0 -5 24 33 53 84
28 51 81 134 117 185 76 108 274 310 377 386 40 30 70 57 67 62 -9 15 -16 11
-109 -63z m-65 -71 c0 -2 -10 -12 -22 -23 l-23 -19 19 23 c18 21 26 27 26 19z
m-190 -187 c-12 -16 -24 -30 -26 -30 -7 0 5 20 24 43 24 27 25 20 2 -13z"/>
<path d="M564 3278 l-29 -33 33 29 c30 28 37 36 29 36 -2 0 -16 -15 -33 -32z"/>
<path d="M487 3183 c-68 -89 -130 -188 -184 -298 -63 -126 -126 -292 -120
-317 3 -10 1 -16 -3 -13 -5 3 -18 -36 -30 -87 -84 -357 -60 -747 66 -1086 46
-124 156 -341 232 -457 164 -252 396 -468 667 -618 256 -142 552 -222 857
-230 78 -3 123 -3 98 -1 -25 2 -98 9 -163 14 -65 6 -171 22 -237 35 -154 33
-410 120 -410 140 0 3 37 -9 82 -25 109 -40 302 -87 408 -100 127 -15 448 -12
565 5 184 27 327 67 478 131 125 54 250 125 239 136 -6 6 -32 -4 -71 -27 -73
-43 -135 -70 -126 -55 3 6 29 22 57 36 32 16 47 29 41 35 -6 6 -41 -7 -94 -35
-318 -167 -708 -239 -1038 -190 -355 52 -669 194 -948 427 -153 129 -318 326
-405 484 -22 40 -42 73 -45 73 -11 0 83 -162 145 -249 73 -104 209 -251 315
-343 90 -78 71 -74 -28 6 -155 124 -322 314 -425 481 -130 212 -217 497 -240
789 -32 394 82 837 299 1169 28 42 48 77 46 77 -14 0 -134 -198 -185 -305
-117 -243 -190 -537 -190 -773 0 -40 -4 -61 -10 -57 -13 8 -13 98 0 244 13
143 32 237 78 376 19 61 36 124 37 140 4 63 133 307 236 446 32 43 57 79 55
79 -3 0 -25 -26 -49 -57z m-256 -510 c-12 -20 -14 -14 -5 12 4 9 9 14 11 11 3
-2 0 -13 -6 -23z m-94 -765 c-3 -8 -6 -5 -6 6 -1 11 2 17 5 13 3 -3 4 -12 1
-19z"/>
<path d="M277 2775 c-24 -50 -20 -58 4 -12 11 22 19 41 17 43 -3 2 -12 -12
-21 -31z"/>
<path d="M3680 2765 c0 -5 5 -17 10 -25 5 -8 10 -10 10 -5 0 6 -5 17 -10 25
-5 8 -10 11 -10 5z"/>
<path d="M346 2745 c-9 -26 -7 -32 5 -12 6 10 9 21 6 23 -2 3 -7 -2 -11 -11z"/>
<path d="M1507 2549 c-141 -33 -227 -135 -226 -269 0 -161 72 -233 294 -295
183 -50 255 -105 255 -195 0 -79 -57 -142 -145 -160 -139 -29 -263 34 -273
139 l-4 50 -84 3 -84 3 0 -57 c0 -55 1 -58 25 -58 19 0 30 -10 49 -47 31 -61
78 -106 141 -135 42 -19 67 -23 160 -23 100 0 116 3 173 29 233 108 244 405
19 509 -29 14 -110 44 -182 67 -141 47 -177 66 -200 110 -37 72 -5 157 75 198
125 63 310 -8 310 -119 l0 -29 80 0 80 0 0 55 c0 48 -3 55 -19 55 -11 0 -34
20 -55 48 -43 59 -97 98 -162 118 -52 15 -167 17 -227 3z"/>
<path d="M2296 2535 c-78 -32 -124 -70 -163 -135 -105 -173 -42 -395 136 -478
64 -29 181 -41 232 -23 18 6 34 10 35 8 2 -2 -48 -87 -111 -191 -63 -103 -115
-189 -115 -192 0 -2 33 -4 73 -4 l73 0 142 253 c176 315 196 363 190 472 -6
98 -34 160 -105 226 -67 63 -140 89 -246 89 -64 0 -95 -6 -141 -25z m242 -101
c86 -35 131 -110 132 -215 0 -86 -28 -142 -93 -186 -120 -81 -294 -37 -353 90
-54 117 -8 248 108 306 52 26 151 28 206 5z"/>
<path d="M3706 1315 c-9 -26 -7 -32 5 -12 6 10 9 21 6 23 -2 3 -7 -2 -11 -11z"/>
<path d="M3654 1198 c-117 -243 -335 -507 -547 -663 -42 -30 -64 -52 -58 -58
11 -11 51 18 191 139 124 108 194 180 186 192 -3 6 -1 14 5 18 8 5 9 3 4 -7
-4 -8 6 -1 23 15 18 17 32 32 32 34 0 3 -9 -3 -20 -13 -33 -30 -23 -11 40 77
56 78 197 335 188 343 -2 3 -22 -32 -44 -77z m-384 -541 c0 -2 -12 -14 -27
-28 l-28 -24 24 28 c23 25 31 32 31 24z"/>
<path d="M351 1265 c0 -5 6 -21 14 -35 8 -14 14 -20 14 -15 0 6 -6 21 -14 35
-8 14 -14 21 -14 15z"/>
<path d="M3702 1131 c-110 -201 -303 -431 -476 -566 -45 -36 -72 -63 -67 -68
14 -14 140 93 259 218 60 62 134 154 176 219 74 111 172 284 165 290 -2 2 -28
-40 -57 -93z m-362 -484 c0 -2 -12 -14 -27 -28 l-28 -24 24 28 c23 25 31 32
31 24z"/>
<path d="M3083 462 c-31 -21 -49 -40 -44 -45 11 -11 123 62 115 74 -8 13 -13
11 -71 -29z"/>
<path d="M3015 471 c-7 -12 12 -24 25 -16 11 7 4 25 -10 25 -5 0 -11 -4 -15
-9z"/>
<path d="M2985 451 c-7 -12 12 -24 25 -16 11 7 4 25 -10 25 -5 0 -11 -4 -15
-9z"/>
<path d="M2945 427 c-12 -10 -14 -16 -7 -21 15 -9 54 12 47 25 -8 12 -18 11
-40 -4z"/>
<path d="M2193 83 c9 -2 25 -2 35 0 9 3 1 5 -18 5 -19 0 -27 -2 -17 -5z"/>
</g>
</svg>
